<svg version="1.1" viewBox="0 0 512 512" xmlns="http://www.w3.org/2000/svg">
  <path d="m198 97c-6 0-11 0.39-16 3.2-4.9 2.8-10 7.9-13 13l-149 256c-2.8 4.9-3.2 10-3.2 16-0.0025 5.6 0.37 11 3.2 16 2.8 4.9 7.9 8.4 13 11 4.9 2.8 10 4.8 16 4.8h112c44 0 77-20 99-58l54-94 29-50 54 92a83 83 0 0 1 12-4 83 83 0 0 1 46 1.5l-83-142c-2.8-4.9-6.3-8.4-11-11-4.9-2.8-12-4.8-18-4.8s-11 2-16 4.8c-4.9 2.8-8.4 6.3-11 11l-30 53-61-102c-2.8-4.9-6.3-10-11-13-4.9-2.8-10-3.2-16-3.2zm0 66 59 101-39 68c-15 24-32 32-58 32l-1 1h-78l117-202zm116 202-29 51h69a83 83 0 0 1-6-19 83 83 0 0 1 0.97-32h-35z" fill="#fff"/>
  <path d="m494 383a64 64 0 0 1-59 64 64 64 0 0 1-69-53 64 64 0 0 1 47-73 64 64 0 0 1 77 41" fill="#00dc82" stroke-width="0"/>
</svg>
