<svg version="1.1" viewBox="0 0 512 512" xmlns="http://www.w3.org/2000/svg">
  <path stroke-width="0" d="m512 256a256 256 0 0 1-256 256 256 256 0 0 1-256-256 256 256 0 0 1 256-256 256 256 0 0 1 256 256z" />
  <path fill="#fff" stroke-width="0" stroke-linecap="round" stroke-linejoin="round" d="m222 155c-4.3 5.5 1 15 1 15 5.9 12 14 24 14 26-26 13-46 26-59 38-2.6 2.4-17-8.1-42-26-21-15-38-26-38-26-0.67 0 7.4 18 15 42 0 0 6.7 35 7.4 50 0.67 14-7.4 38-7.4 38-4.2 22-15 41-15 43 0 2-0.3 3.2 0.37 3.2 2.6 0 18-8.1 30-17 22-15 36-21 50-21 11 9e-3 14 1.1 36 11 34 16 41 20 74 20 23 0.16 46-5.4 58-11 29-12 53-32 74-74-23-46-40-62-108-81-38-14-53-21-67-26-5.5-2-20-5.1-22-2.1zm121 67c12 3e-3 22 9.4 22 22 7e-3 12-9.4 22-22 22-12-3e-3 -22-9.4-22-22 3e-3 -12 9.4-22 22-22z" />
</svg>
