<svg class="" width="512" height="512" enable-background="new 0 0 512 512" version="1.1" viewBox="0 0 40 60" xml:space="preserve" xmlns="http://www.w3.org/2000/svg"><g transform="matrix(8 0 0 8 70 1.9e-6)" stroke-width="0"><path d="m-2.5 3.7a3.8 3.8 0 0 1-3.8 3.8 3.8 3.8 0 0 1-3.8-3.8 3.8 3.8 0 0 1 3.8-3.8 3.8 3.8 0 0 1 3.8 3.8z"/><path d="m-6.8 2.2c-0.064 0.082 0.015 0.22 0.015 0.22 0.088 0.18 0.21 0.36 0.21 0.39-0.39 0.2-0.69 0.38-0.88 0.56-0.038 0.035-0.25-0.12-0.63-0.39-0.31-0.22-0.56-0.39-0.57-0.39s0.11 0.26 0.22 0.62c0 0 0.1 0.52 0.11 0.74 0.01 0.21-0.11 0.57-0.11 0.57-0.063 0.32-0.22 0.61-0.22 0.64s-0.0044 0.048 0.0055 0.048c0.038 0 0.26-0.12 0.45-0.25 0.33-0.22 0.53-0.31 0.74-0.31 0.16 1.4e-4 0.21 0.016 0.53 0.17 0.5 0.24 0.61 0.29 1.1 0.3 0.34 0.0024 0.68-0.08 0.86-0.16 0.43-0.18 0.79-0.48 1.1-1.1-0.34-0.69-0.6-0.92-1.6-1.2-0.56-0.21-0.79-0.31-1-0.39-0.081-0.03-0.3-0.075-0.33-0.031zm1.8 1c0.18 4.8e-5 0.32 0.14 0.32 0.32 1e-4 0.18-0.14 0.32-0.32 0.32-0.18-4.8e-5 -0.32-0.14-0.32-0.32 4.9e-5 -0.18 0.14-0.32 0.32-0.32z" fill="#fff"/></g></svg>
